<svg id="Слой_1" data-name="Слой 1" xmlns="http://www.w3.org/2000/svg" viewBox="0 0 146.69 146.69"><defs><style>.cls-1{fill:#6a9bc7;}.cls-1,.cls-2,.cls-3,.cls-4,.cls-5,.cls-6,.cls-7{fill-rule:evenodd;}.cls-2{fill:#fdc54f;}.cls-3{fill:#f2d29b;}.cls-4{fill:#97b696;}.cls-5{fill:#fdf6ee;}.cls-6{fill:#f8dfc6;}.cls-7{fill:#326c94;}</style></defs><title>a1</title><path class="cls-1" d="M75.26,148.23A73.34,73.34,0,1,0,1.92,74.89,73.49,73.49,0,0,0,75.26,148.23Z" transform="translate(-1.92 -1.54)"/><path class="cls-2" d="M88.4,61.15l38.1-19.93,18.35,28.07.44,1q.22,2.88.32,5.78L111,93.32Z" transform="translate(-1.92 -1.54)"/><path class="cls-3" d="M52.66,88.55l-.52-.37c-4,6.13.77,14.15,7.14,11.85-4.7,5.76-.83,13.87,5.09,13.08-3.72,6,1.32,13.75,7.7,10.57l29.23-14.59c8.21-4.1,17.69-14.37,21-20.41,9.89-17.9-2.59-35.39-11-37-6.58-1.28-11-3.1-15.42-1L47.36,74C38.21,77.78,45.07,91.13,52.66,88.55Z" transform="translate(-1.92 -1.54)"/><path class="cls-4" d="M133.6,30.66,109.14,43l22.75,45.64,16.54-8.34c.12-1.71.18-3.44.18-5.19A73,73,0,0,0,133.6,30.66Z" transform="translate(-1.92 -1.54)"/><path class="cls-5" d="M78.61,69.37,47.3,39.9,22.05,62l-.7.84q-1,2.72-1.86,5.48l28.71,26Z" transform="translate(-1.92 -1.54)"/><path class="cls-5" d="M105.63,105.4l.6-.22c2.17,7-4.56,13.42-10.08,9.48,3,6.81-2.94,13.58-8.43,11.22,2,6.8-5,12.88-10.27,8.09L53.24,112c-6.8-6.16-13.15-18.61-14.74-25.33-4.69-19.9,12-33.38,20.6-32.68,6.68.54,11.44,0,15.11,3.22l40.43,35.6C122.45,98.94,112.24,109.93,105.63,105.4Z" transform="translate(-1.92 -1.54)"/><path class="cls-6" d="M96.26,115.71V115a9.42,9.42,0,0,1,.36,1.07l-.36-.33Zm0-.94a6.35,6.35,0,0,0,2.32,1L96.26,114v.79Zm0-17.49v-.39c2.83,2.31,7.55,6.19,10,8.32-.06,0,0,0,.06.2a9.13,9.13,0,0,1,.34,1.85C103.49,104.34,99,99.94,96.26,97.28ZM79,118.65s4.74,4.47,9,8.41a8.93,8.93,0,0,0-.25-1.17,5.75,5.75,0,0,0,1.45.41c-4.57-3.5-10.16-7.65-10.16-7.65ZM96.26,96.89v.39L93.94,95l2.32,1.89Zm0,17.08v.79l-.12-.08.12.28v.74c-4.63-4.25-10.15-9.36-10.15-9.36S91.68,110.47,96.26,114Z" transform="translate(-1.92 -1.54)"/><path class="cls-7" d="M30.79,16.79,63.53,46.31,29.32,84.11,3.34,60.7A73.34,73.34,0,0,1,30.79,16.79Z" transform="translate(-1.92 -1.54)"/><path class="cls-3" d="M74.83,111.55h0a5.48,5.48,0,0,1-.63,7.88L66,125.5a5.76,5.76,0,0,1-7.88-.63h0a5.61,5.61,0,0,1,.63-7.88L67,110.92A5.75,5.75,0,0,1,74.83,111.55Z" transform="translate(-1.92 -1.54)"/><path class="cls-3" d="M67.58,103h0a5.48,5.48,0,0,1-.63,7.88L58.71,117a5.76,5.76,0,0,1-7.88-.63h0a5.61,5.61,0,0,1,.63-7.88l8.24-6.08A5.75,5.75,0,0,1,67.58,103Z" transform="translate(-1.92 -1.54)"/><path class="cls-3" d="M60.32,94.54h0a5.48,5.48,0,0,1-.62,7.88l-8.24,6.08a5.76,5.76,0,0,1-7.88-.63h0a5.61,5.61,0,0,1,.63-7.88l8.24-6.08A5.75,5.75,0,0,1,60.32,94.54Z" transform="translate(-1.92 -1.54)"/><path class="cls-3" d="M53.07,86h0a5.48,5.48,0,0,1-.63,7.88L44.21,100a5.76,5.76,0,0,1-7.88-.62h0A5.61,5.61,0,0,1,37,91.49l8.24-6.08A5.75,5.75,0,0,1,53.07,86Z" transform="translate(-1.92 -1.54)"/><path class="cls-3" d="M67.23,54c2.29-1.33,7.41-2.65,12.85-3.53s13.66-1.61,20-.8c3.91.5,9.56,3.77,9.16,8.32S96.16,66.15,92.09,66.3c-3.19,0-14.15-3.39-21.39-.3-8.37,3.57-15.13-.75-14.83-4.68C55.93,60.48,59.43,58.54,67.23,54Z" transform="translate(-1.92 -1.54)"/></svg>