<svg id="Слой_1" data-name="Слой 1" xmlns="http://www.w3.org/2000/svg" viewBox="0 0 150 150"><defs><style>.cls-1{fill:#6a9bc7;}.cls-1,.cls-2,.cls-3,.cls-4,.cls-5{fill-rule:evenodd;}.cls-2{fill:#fdf6ee;}.cls-3{fill:#f8dfc6;}.cls-4{fill:#326c94;}.cls-5{fill:#97b696;}</style></defs><title>a2</title><path class="cls-1" d="M75,150.65a75,75,0,1,0-75-75A75.14,75.14,0,0,0,75,150.65Z" transform="translate(0 -0.65)"/><path class="cls-2" d="M39.59,82.12a19.86,19.86,0,1,0,5.59,39.32c10.86-1.54,22.21-15.7,20.67-26.55S50.45,80.57,39.59,82.12Z" transform="translate(0 -0.65)"/><path class="cls-3" d="M47.05,64.8,27.47,91.54c-1.65,2.25-2.26,7,0,8.62h0a5.08,5.08,0,0,0,7.09-1.08l15.33-21C54.35,72,49,65.92,47.05,64.8Z" transform="translate(0 -0.65)"/><path class="cls-4" d="M56.83,11.92H94c7.2,0,13.09,4.21,13.09,9.36v70.6c0,5.15-5.89,9.36-13.09,9.36H56.83c-7.2,0-13.09-4.21-13.09-9.36V21.28C43.74,16.13,49.63,11.92,56.83,11.92Z" transform="translate(0 -0.65)"/><path class="cls-5" d="M47.81,19.41H103c.11,0,.19.06.19.13V92.88c0,.07-.09.13-.19.13H47.81c-.11,0-.2-.06-.2-.13V19.54C47.61,19.47,47.7,19.41,47.81,19.41Z" transform="translate(0 -0.65)"/><path class="cls-5" d="M97.93,113.65l11.12,26.5h4.22A75.34,75.34,0,0,0,131,125.58l-6.78-16.92Z" transform="translate(0 -0.65)"/><path class="cls-5" d="M132.45,119.82l1.06,2.73a75.29,75.29,0,0,1-26,20.68l-4.44-11.72Z" transform="translate(0 -0.65)"/><path class="cls-2" d="M74.76,92.89l12.82,18.2c1.65,2.34,10.23,9.59,12.7,8.14s-1-9.47-2.73-11.77L87.73,95.13C82.1,88.06,77.25,91,74.76,92.89Z" transform="translate(0 -0.65)"/><path class="cls-2" d="M78.72,56.72l10.33,23.6c.82-4.27,7.34-4.93,9.7-.9.24-4.5,6.32-5.62,9.17-2.38.91-4.11,7.44-4.5,9.38-.14l8.84,20c2.48,5.62,2.64,14.19,1.51,18.11-3.35,11.63-18.72,12-24.14,8.43-4.22-2.79-7.54-4.31-8.91-7.29L69.27,60.75C66.05,53.75,76.24,50.89,78.72,56.72Z" transform="translate(0 -0.65)"/><path class="cls-3" d="M111.32,83.92s-1.68-4-3.18-7.55a4,4,0,0,0-.21.68,5.25,5.25,0,0,0-.82-.75c1.88,3.46,4.21,7.63,4.21,7.63ZM89.09,80.19a4.21,4.21,0,0,1,.38-1c1.67,4,4.38,10.85,4.38,10.85s-3.45-6.76-4.78-9.69c0,0,0,0,0-.12ZM97.5,78a5.31,5.31,0,0,1,1.25,1.46,4.59,4.59,0,0,1,.12-.85c1.7,3.91,3.78,8.77,3.78,8.77S99.42,81.58,97.5,78Z" transform="translate(0 -0.65)"/><path class="cls-3" d="M83.24,91.34,89.51,105,81.12,90.72A5.5,5.5,0,0,1,83.24,91.34Z" transform="translate(0 -0.65)"/><polygon class="cls-2" points="31.48 97.2 15.07 119.66 33.78 136.92 50.44 114.1 31.48 97.2"/><path class="cls-5" d="M17,113.93l-3.44,4.72A75.42,75.42,0,0,0,34.83,139l5.71-7.83Z" transform="translate(0 -0.65)"/><path class="cls-3" d="M28.94,91.87c-4.86,2-5.76,8-2,13.58s10.74,8.45,15.6,6.5,5.76-8,2-13.58S33.81,89.92,28.94,91.87Z" transform="translate(0 -0.65)"/><path class="cls-2" d="M27.94,94.63c-4.84,2.46-5.88,8.78-2.31,14.11s10.39,7.67,15.24,5.21,5.88-8.78,2.31-14.11S32.78,92.17,27.94,94.63Z" transform="translate(0 -0.65)"/><path class="cls-2" d="M45.25,64.31,25.68,91c-1.65,2.25-2.26,7,0,8.62h0a5.08,5.08,0,0,0,7.09-1.08l15.33-21C52.55,71.48,47.17,65.44,45.25,64.31Z" transform="translate(0 -0.65)"/></svg>