<svg id="Слой_1" data-name="Слой 1" xmlns="http://www.w3.org/2000/svg" viewBox="0 0 148.77 148.77"><defs><style>.cls-1{fill:#6a9bc7;}.cls-1,.cls-2,.cls-3,.cls-4,.cls-5{fill-rule:evenodd;}.cls-2{fill:#fadfc5;}.cls-3{fill:#f8dfc6;}.cls-4{fill:#fdf6ee;}.cls-5{fill:#97b696;}.cls-6{fill:#eb7372;}.cls-7{fill:#fdc54f;}</style></defs><title>a3</title><path class="cls-1" d="M75,149.39A74.38,74.38,0,1,0,.62,75,74.53,74.53,0,0,0,75,149.39Z" transform="translate(-0.62 -0.62)"/><polygon class="cls-2" points="105.77 35.24 70.84 34.84 59.82 60.6 66.41 77.53 104.97 53.83 105.77 35.24"/><path class="cls-3" d="M81.08,78.46h0a5.35,5.35,0,0,1-6.63-3.77l-6.6-27.46a5.48,5.48,0,0,1,3.77-6.63h0a5.41,5.41,0,0,1,6.63,3.77l6.6,27.46A5.47,5.47,0,0,1,81.08,78.46Z" transform="translate(-0.62 -0.62)"/><path class="cls-3" d="M71.56,79.86h0a5.35,5.35,0,0,1-6.63-3.77l-6.6-27.46A5.47,5.47,0,0,1,62.11,42h0a5.41,5.41,0,0,1,6.63,3.77l6.6,27.46A5.47,5.47,0,0,1,71.56,79.86Z" transform="translate(-0.62 -0.62)"/><path class="cls-3" d="M88.24,76.71h0A5.35,5.35,0,0,1,81.09,74L70.21,48a5.48,5.48,0,0,1,2.67-7.14h0A5.41,5.41,0,0,1,80,43.5L90.91,69.57A5.47,5.47,0,0,1,88.24,76.71Z" transform="translate(-0.62 -0.62)"/><path class="cls-4" d="M98.27,33.14c6.21-9.36,23.16-4.86,27.33,2.05s-.3,14.05-9.65,20.42S102.31,55.8,97.3,70,92.06,42.5,98.27,33.14Z" transform="translate(-0.62 -0.62)"/><path class="cls-4" d="M112.41,30.6h0c.48,2.93-1.49,6.32-4.45,6.2L71.91,35.22c-3-.13-5.72-1.52-6.2-4.44h0a5.41,5.41,0,0,1,4.45-6.2l36.05,1.57C109.18,26.28,111.93,27.67,112.41,30.6Z" transform="translate(-0.62 -0.62)"/><path class="cls-4" d="M57.34,55.59h0a5.46,5.46,0,0,1-2-7.36L66.14,27.66a5.35,5.35,0,0,1,7.36-2h0a5.41,5.41,0,0,1,2,7.36L64.7,53.59A5.34,5.34,0,0,1,57.34,55.59Z" transform="translate(-0.62 -0.62)"/><path class="cls-4" d="M59.61,86.39h0a5.35,5.35,0,0,1-5.48-5.31l.47-28.24a5.48,5.48,0,0,1,5.31-5.48h0a5.41,5.41,0,0,1,5.47,5.31l-.46,28.24A5.47,5.47,0,0,1,59.61,86.39Z" transform="translate(-0.62 -0.62)"/><path class="cls-4" d="M68.78,46.84c5.61-5.28,24.83-3,20.15,10.05s24.35-14.13,24.35-14.13L97.84,28.44S68.19,23.92,68.78,46.84Z" transform="translate(-0.62 -0.62)"/><polygon class="cls-4" points="98.12 27.6 110.63 51.97 126.67 46.57 116.85 20.9 98.12 27.6"/><path class="cls-5" d="M113.89,19.94l12.22,32.8,17.5-6.52a74.61,74.61,0,0,0-22-29.16Z" transform="translate(-0.62 -0.62)"/><rect class="cls-6" x="59.12" y="80.17" width="23.6" height="1.54"/><ellipse class="cls-6" cx="70.92" cy="81.7" rx="11.8" ry="5.3"/><ellipse class="cls-6" cx="70.92" cy="80.17" rx="11.8" ry="5.3"/><ellipse class="cls-7" cx="70.92" cy="80.17" rx="9.99" ry="4.48"/><path class="cls-6" d="M68.13,81.66a7.48,7.48,0,0,0,1.65.63,7,7,0,0,0,1.72.21,3.23,3.23,0,0,0,1.18-.18c.31-.12.47-.28.47-.46s-.13-.36-.39-.47A8.65,8.65,0,0,0,71,81.06a11.25,11.25,0,0,1-3-.66c-.57-.26-.86-.62-.86-1.08s.39-1,1.18-1.36a9.41,9.41,0,0,1,3.3-.62v-.59h1.22v.58a13.59,13.59,0,0,1,1.62.17,12.85,12.85,0,0,1,1.57.37l-1.2,1.21a7.4,7.4,0,0,0-1.31-.37,7.31,7.31,0,0,0-1.34-.12,3.47,3.47,0,0,0-1.1.14q-.42.14-.42.37t.37.37a7.14,7.14,0,0,0,1.45.27l.12,0a12.2,12.2,0,0,1,3.06.62,2.08,2.08,0,0,1,.75.55,1.09,1.09,0,0,1,.26.71q0,.88-1.19,1.46a8.21,8.21,0,0,1-3.19.68v1H71.05v-1a13.7,13.7,0,0,1-2.47-.22,10.29,10.29,0,0,1-2.17-.67Z" transform="translate(-0.62 -0.62)"/><path class="cls-4" d="M99.28,45.36h0c3.33,1,5.43,4.69,4.17,7.93L92,82.54a6.53,6.53,0,0,1-7.93,4.17h0a6.35,6.35,0,0,1-4.17-7.93L91.35,49.53A6.52,6.52,0,0,1,99.28,45.36Z" transform="translate(-0.62 -0.62)"/><rect class="cls-6" x="59.12" y="125.2" width="23.6" height="1.54"/><ellipse class="cls-6" cx="70.92" cy="126.73" rx="11.8" ry="5.3"/><ellipse class="cls-6" cx="70.92" cy="125.2" rx="11.8" ry="5.3"/><ellipse class="cls-7" cx="70.92" cy="125.2" rx="9.99" ry="4.48"/><rect class="cls-6" x="59.12" y="122.09" width="23.6" height="1.54"/><ellipse class="cls-6" cx="70.92" cy="123.63" rx="11.8" ry="5.3"/><ellipse class="cls-6" cx="70.92" cy="122.09" rx="11.8" ry="5.3"/><ellipse class="cls-7" cx="70.92" cy="122.09" rx="9.99" ry="4.48"/><rect class="cls-6" x="59.12" y="118.99" width="23.6" height="1.54"/><ellipse class="cls-6" cx="70.92" cy="120.52" rx="11.8" ry="5.3"/><ellipse class="cls-6" cx="70.92" cy="118.99" rx="11.8" ry="5.3"/><ellipse class="cls-7" cx="70.92" cy="118.99" rx="9.99" ry="4.48"/><rect class="cls-6" x="59.12" y="115.88" width="23.6" height="1.54"/><ellipse class="cls-6" cx="70.92" cy="117.42" rx="11.8" ry="5.3"/><ellipse class="cls-6" cx="70.92" cy="115.88" rx="11.8" ry="5.3"/><ellipse class="cls-7" cx="70.92" cy="115.88" rx="9.99" ry="4.48"/><rect class="cls-6" x="59.12" y="112.78" width="23.6" height="1.54"/><ellipse class="cls-6" cx="70.92" cy="114.31" rx="11.8" ry="5.3"/><ellipse class="cls-6" cx="70.92" cy="112.78" rx="11.8" ry="5.3"/><ellipse class="cls-7" cx="70.92" cy="112.77" rx="9.99" ry="4.48"/><rect class="cls-6" x="59.12" y="109.67" width="23.6" height="1.54"/><ellipse class="cls-6" cx="70.92" cy="111.21" rx="11.8" ry="5.3"/><ellipse class="cls-6" cx="70.92" cy="109.67" rx="11.8" ry="5.3"/><ellipse class="cls-7" cx="70.92" cy="109.67" rx="9.99" ry="4.48"/><rect class="cls-6" x="59.12" y="106.56" width="23.6" height="1.54"/><ellipse class="cls-6" cx="70.92" cy="108.1" rx="11.8" ry="5.3"/><ellipse class="cls-6" cx="70.92" cy="106.56" rx="11.8" ry="5.3"/><ellipse class="cls-7" cx="70.92" cy="106.56" rx="9.99" ry="4.48"/><rect class="cls-6" x="59.12" y="103.46" width="23.6" height="1.54"/><ellipse class="cls-6" cx="70.92" cy="104.99" rx="11.8" ry="5.3"/><ellipse class="cls-6" cx="70.92" cy="103.46" rx="11.8" ry="5.3"/><ellipse class="cls-7" cx="70.92" cy="103.46" rx="9.99" ry="4.48"/></svg>