<svg id="Слой_1" data-name="Слой 1" xmlns="http://www.w3.org/2000/svg" viewBox="0 0 99.5 99.5"><defs><style>.cls-1{fill:#6a9bc7;}.cls-1,.cls-3,.cls-4,.cls-5,.cls-6{fill-rule:evenodd;}.cls-2{fill:#326c94;}.cls-3{fill:#606060;}.cls-4{fill:#97b696;}.cls-5{fill:#fdf6ee;}.cls-6{fill:#f8dfc6;}</style></defs><title>a4</title><path class="cls-1" d="M50.25,99.5A49.75,49.75,0,1,0,.5,49.75,49.85,49.85,0,0,0,50.25,99.5Z" transform="translate(-0.5)"/><rect class="cls-2" x="14.15" y="35.08" width="71.19" height="47.69" rx="7.14" ry="7.14"/><path class="cls-3" d="M40.26,23.65h20a2.26,2.26,0,0,1,2.25,2.25V36.45a2.26,2.26,0,0,1-2.25,2.25h-.67V28.49a1.38,1.38,0,0,0-1.38-1.38H42.31a1.38,1.38,0,0,0-1.38,1.38V38.71h-.67A2.26,2.26,0,0,1,38,36.45V25.91A2.26,2.26,0,0,1,40.26,23.65Z" transform="translate(-0.5)"/><path class="cls-4" d="M21.79,35.08H78.7a7.08,7.08,0,0,1,3,.65V60.06a6.32,6.32,0,0,1-6.31,6.31H25.12a6.33,6.33,0,0,1-6.31-6.31V35.74A7.08,7.08,0,0,1,21.79,35.08Z" transform="translate(-0.5)"/><path class="cls-4" d="M38.86,62.37,37.58,70.6c-.31,2-4.51,1.89-4.8,0L31.5,62.37C31.15,60.1,39.21,60.09,38.86,62.37Z" transform="translate(-0.5)"/><path class="cls-4" d="M69,62.37,67.72,70.6c-.31,2-4.51,1.89-4.8,0l-1.28-8.23C61.29,60.1,69.35,60.09,69,62.37Z" transform="translate(-0.5)"/><path class="cls-5" d="M57.51,16,57.8,1.46,46.55.14l-.5,0q-.87.36-1.73.75V14.06Z" transform="translate(-0.5)"/><path class="cls-5" d="M63,20.54l-2.73-8.18C59.83,11,56,7.25,54.73,8.16s-.2,5.34.46,6.59l3.86,6.68c1.75,3,3.28,4.71,4.66,3.71C64,25,63.94,23.28,63,20.54Z" transform="translate(-0.5)"/><path class="cls-5" d="M54.6,31l.19.1c-1.26,2.13-4.42,1.91-4.68-.38-1,2.3-4.09,2.35-4.74.43-1.26,2-4.38,1.68-4.37-.74V19.38A20.53,20.53,0,0,1,44,9.9C48,4.19,55.16,5.33,56.93,7.64c1.38,1.8,2.61,2.87,2.63,4.54l.25,18.28C60.05,33.8,55,33.74,54.6,31Z" transform="translate(-0.5)"/><path class="cls-6" d="M45.2,27.36s0,2.21-.08,4.17a2.91,2.91,0,0,0,.24-.33,2,2,0,0,0,.23.46c-.16-1.95-.39-4.3-.39-4.3Zm9.54,3.84a3.1,3.1,0,0,1-.39.51c0-2.2.2-6,.2-6s.21,3.79.23,5.41c0,0,0,0,0,.06Zm-4.36.42a2.17,2.17,0,0,1-.28-.86,3.22,3.22,0,0,1-.23.43c0-2.16,0-4.85,0-4.85S50.24,29.6,50.38,31.63Z" transform="translate(-0.5)"/><path class="cls-6" d="M59.73,22.64l-.09-4.26.7,5.07A3.72,3.72,0,0,1,59.73,22.64Z" transform="translate(-0.5)"/><path class="cls-4" d="M59.88.94V7H42.58V.59a50.15,50.15,0,0,1,17.3.35Z" transform="translate(-0.5)"/></svg>