<?xml version="1.0" encoding="UTF-8"?>
<!DOCTYPE svg PUBLIC "-//W3C//DTD SVG 1.1//EN" "http://www.w3.org/Graphics/SVG/1.1/DTD/svg11.dtd">
<!-- Creator: CorelDRAW X7 -->
<svg xmlns="http://www.w3.org/2000/svg" xml:space="preserve" width="12.7mm" height="12.7mm" version="1.1" style="shape-rendering:geometricPrecision; text-rendering:geometricPrecision; image-rendering:optimizeQuality; fill-rule:evenodd; clip-rule:evenodd"
viewBox="0 0 328749 328749"
 xmlns:xlink="http://www.w3.org/1999/xlink">
 <defs>
  <style type="text/css">
   <![CDATA[
    .fil5 {fill:none}
    .fil0 {fill:#6A9BC7}
    .fil3 {fill:#97B696}
    .fil4 {fill:#F2D29B}
    .fil2 {fill:#F8DFC6}
    .fil1 {fill:#FDF6EE}
    .fil6 {fill:#6A9BC7;fill-rule:nonzero}
    .fil7 {fill:#D17271;fill-rule:nonzero}
   ]]>
  </style>
 </defs>
 <g id="Слой_x0020_1">
  <metadata id="CorelCorpID_0Corel-Layer"/>
  <path class="fil0" d="M164374 328749c90766,0 164375,-73609 164375,-164375 0,-90765 -73609,-164374 -164375,-164374 -90765,0 -164374,73609 -164374,164374 160,90699 73676,164214 164382,164375l-8 0z"/>
  <path class="fil1" d="M276610 179629l43754 36820c-1972,5953 -4343,11855 -6997,17558l-20781 31358 -47438 -39810 31462 -45926z"/>
  <path class="fil1" d="M251130 150401c1548,-165 3120,-251 4678,-251 24035,0 43527,19492 43527,43527 0,22526 -17191,41332 -39621,43351 -23934,2399 -55494,-21762 -57893,-45663 -2400,-23900 25378,-38562 49309,-40964z"/>
  <path class="fil2" d="M226145 117462l55691 46648c4667,3914 8483,13645 4569,18312l0 0c-2118,2521 -5242,3978 -8535,3978 -2596,0 -5115,-906 -7113,-2565l-43656 -36620c-12723,-10652 -4440,-26334 -956,-29753z"/>
  <path class="fil1" d="M77978 150401c-1108,-85 -2242,-129 -3357,-129 -24035,0 -43527,19492 -43527,43527 0,21969 16373,40498 38171,43198 23934,2464 55659,-21731 57927,-45632 2270,-23900 -25280,-38562 -49214,-40964z"/>
  <path class="fil2" d="M102963 117462l-55688 46648c-4538,3914 -8483,13645 -4538,18312l0 0c2118,2521 5242,3978 8535,3978 2599,0 5115,-906 7113,-2565l43527 -36620c12788,-10652 4538,-26334 1051,-29753z"/>
  <path class="fil1" d="M52600 179629l-44117 36820c1739,5236 3787,10426 6054,15459l22027 33333 47399 -39686 -31363 -45926z"/>
  <path class="fil3" d="M13150 206288l-6246 5294c6316,21009 16849,40594 30845,57474l16438 -13908 -41037 -48860z"/>
  <path class="fil2" d="M50234 165591c-11377,1610 -16438,14069 -11408,27845 5030,13774 18410,23636 29784,21993 11374,-1644 16438,-14072 11408,-27846 -5030,-13773 -18444,-23734 -29784,-21992z"/>
  <path class="fil1" d="M46649 170916c-11605,2795 -17062,15616 -12327,28831 4734,13217 18081,21765 29587,19068 11506,-2695 17227,-15516 12425,-28666 -4799,-13150 -18112,-21894 -29685,-19233z"/>
  <rect class="fil4" x="81924" y="50529" width="164835" height="233116"/>
  <path class="fil3" d="M315894 206288l6049 5064c-6282,21094 -16774,40733 -30806,57691l-16438 -13743 41195 -49012z"/>
  <path class="fil2" d="M278877 165591c11374,1610 16438,14069 11408,27845 -5030,13774 -18410,23636 -29784,21993 -11374,-1644 -16437,-14072 -11374,-27846 5060,-13773 18410,-23734 29750,-21992z"/>
  <path class="fil1" d="M239658 120156l53420 47604c4504,4010 8120,13906 4375,18705l0 0c-1931,2558 -4955,4064 -8162,4064 -2521,0 -4954,-934 -6831,-2617l-41881 -37379c-12197,-10913 -4242,-26924 -921,-30377z"/>
  <path class="fil1" d="M282724 170916c11736,2697 17325,15583 12459,28831 -4864,13248 -18312,21765 -30080,19068 -11770,-2695 -17162,-15516 -12295,-28666 4866,-13150 18311,-21894 29916,-19233z"/>
  <path class="fil1" d="M99380 115489l-55690 46618c-4667,3911 -8480,13642 -4569,18311l0 0c2118,2522 5242,3979 8535,3979 2599,0 5115,-909 7113,-2565l43659 -36590c12723,-10685 4437,-26367 952,-29753z"/>
  <rect class="fil5" x="195014" y="79228" width="50562" height="50562"/>
  <g id="_848148224">
   <polygon class="fil6" points="105471,126097 89345,81025 99207,81025 110654,114389 121640,81025 131334,81025 115303,126097 "/>
   <polygon id="1" class="fil6" points="135615,126097 135615,81025 144743,81025 144743,126097 "/>
   <path id="2" class="fil6" d="M151028 111492l8876 -880c536,2969 1605,5141 3233,6536 1626,1396 3818,2087 6578,2087 2917,0 5120,-619 6598,-1856 1480,-1238 2226,-2687 2226,-4344 0,-1071 -316,-1972 -934,-2728 -619,-746 -1712,-1395 -3265,-1942 -1058,-378 -3471,-1027 -7248,-1972 -4858,-1217 -8268,-2708 -10230,-4481 -2759,-2485 -4134,-5519 -4134,-9096 0,-2296 650,-4458 1942,-6461 1299,-2006 3168,-3526 5612,-4577 2443,-1048 5381,-1574 8845,-1574 5633,0 9883,1251 12725,3756 2856,2509 4344,5845 4492,10031l-9128 316c-388,-2330 -1216,-3997 -2487,-5017 -1269,-1017 -3179,-1530 -5719,-1530 -2622,0 -4677,544 -6158,1636 -955,704 -1436,1636 -1436,2812 0,1071 450,1982 1353,2738 1142,976 3925,1983 8341,3034 4416,1038 7680,2128 9790,3241 2117,1123 3776,2643 4972,4584 1196,1942 1794,4334 1794,7178 0,2581 -714,5004 -2151,7259 -1436,2257 -3463,3934 -6086,5027 -2622,1100 -5896,1646 -9810,1646 -5695,0 -10072,-1310 -13124,-3945 -3055,-2622 -4869,-6453 -5467,-11478z"/>
   <path id="3" class="fil6" d="M236013 126097l-9831 0 -3894 -10261 -18076 0 -3745 10261 -9653 0 17501 -45072 9643 0 18055 45072zm-16681 -17879l-6264 -16681 -6086 16681 12350 0z"/>
   <polygon class="fil7" points="108793,126097 92666,81025 102528,81025 113975,114389 124961,81025 134655,81025 118624,126097 "/>
   <polygon id="1" class="fil7" points="138936,126097 138936,81025 148064,81025 148064,126097 "/>
   <path id="2" class="fil7" d="M154349 111492l8876 -880c536,2969 1605,5141 3233,6536 1626,1396 3818,2087 6578,2087 2917,0 5120,-619 6598,-1856 1481,-1238 2226,-2687 2226,-4344 0,-1071 -316,-1972 -934,-2728 -619,-746 -1711,-1395 -3265,-1942 -1058,-378 -3471,-1027 -7248,-1972 -4858,-1217 -8267,-2708 -10230,-4481 -2759,-2485 -4134,-5519 -4134,-9096 0,-2296 650,-4458 1942,-6461 1299,-2006 3168,-3526 5612,-4577 2444,-1048 5382,-1574 8845,-1574 5633,0 9883,1251 12725,3756 2856,2509 4344,5845 4492,10031l-9128 316c-388,-2330 -1216,-3997 -2487,-5017 -1269,-1017 -3179,-1530 -5718,-1530 -2623,0 -4678,544 -6159,1636 -955,704 -1436,1636 -1436,2812 0,1071 450,1982 1354,2738 1141,976 3924,1983 8340,3034 4416,1038 7680,2128 9790,3241 2117,1123 3777,2643 4973,4584 1195,1942 1793,4334 1793,7178 0,2581 -714,5004 -2151,7259 -1436,2257 -3463,3934 -6085,5027 -2623,1100 -5897,1646 -9811,1646 -5695,0 -10072,-1310 -13124,-3945 -3055,-2622 -4869,-6453 -5467,-11478z"/>
   <path id="3" class="fil7" d="M239334 126097l-9831 0 -3893 -10261 -18076 0 -3746 10261 -9653 0 17501 -45072 9643 0 18055 45072zm-16681 -17879l-6264 -16681 -6086 16681 12350 0z"/>
  </g>
  <g id="_848153248">
   <polygon class="fil6" points="93000,226681 93000,187374 120011,187374 120011,194016 100959,194016 100959,203350 117431,203350 117431,209993 100959,209993 100959,226681 "/>
   <path id="1" class="fil6" d="M126535 226681l0 -39307 16717 0c4198,0 7255,357 9158,1061 1913,704 3432,1960 4577,3761 1141,1812 1718,3870 1718,6195 0,2956 -859,5389 -2588,7310 -1729,1921 -4310,3129 -7750,3632 1711,999 3119,2096 4227,3295 1115,1198 2617,3329 4501,6386l4794 7667 -9487 0 -5692 -8583c-2040,-3047 -3440,-4968 -4199,-5763 -750,-787 -1548,-1335 -2389,-1630 -852,-293 -2187,-438 -4017,-438l-1611 0 0 16414 -7959 0zm7959 -22673l5876 0c3806,0 6177,-166 7127,-484 942,-321 1693,-880 2223,-1667 541,-787 805,-1773 805,-2954 0,-1328 -357,-2389 -1061,-3212 -704,-816 -1701,-1325 -2982,-1538 -650,-90 -2581,-137 -5793,-137l-6195 0 0 9992z"/>
   <polygon id="2" class="fil6" points="166181,226681 166181,187374 195277,187374 195277,194016 174141,194016 174141,202745 193796,202745 193796,209387 174141,209387 174141,220039 196045,220039 196045,226681 "/>
   <polygon id="3" class="fil6" points="202799,226681 202799,187374 231895,187374 231895,194016 210759,194016 210759,202745 230414,202745 230414,209387 210759,209387 210759,220039 232663,220039 232663,226681 "/>
   <polygon class="fil7" points="96018,226699 96018,187392 123030,187392 123030,194034 103978,194034 103978,203369 120449,203369 120449,210011 103978,210011 103978,226699 "/>
   <path id="1" class="fil7" d="M129553 226699l0 -39307 16717 0c4199,0 7256,357 9158,1061 1913,704 3433,1960 4577,3761 1141,1812 1719,3870 1719,6195 0,2956 -860,5389 -2589,7310 -1729,1921 -4310,3130 -7750,3632 1711,999 3119,2097 4227,3295 1116,1199 2617,3329 4502,6386l4794 7667 -9488 0 -5692 -8583c-2040,-3047 -3440,-4968 -4198,-5762 -751,-787 -1548,-1336 -2390,-1631 -851,-293 -2187,-438 -4017,-438l-1610 0 0 16414 -7960 0zm7960 -22673l5876 0c3805,0 6176,-166 7126,-484 942,-321 1693,-880 2224,-1667 541,-787 805,-1773 805,-2954 0,-1328 -357,-2389 -1062,-3212 -704,-815 -1700,-1325 -2982,-1538 -649,-90 -2580,-137 -5793,-137l-6194 0 0 9992z"/>
   <polygon id="2" class="fil7" points="169199,226699 169199,187392 198295,187392 198295,194034 177159,194034 177159,202763 196814,202763 196814,209405 177159,209405 177159,220057 199064,220057 199064,226699 "/>
   <polygon id="3" class="fil7" points="205817,226699 205817,187392 234913,187392 234913,194034 213777,194034 213777,202763 233432,202763 233432,209405 213777,209405 213777,220057 235682,220057 235682,226699 "/>
  </g>
 </g>
</svg>
