<svg id="Слой_1" data-name="Слой 1" xmlns="http://www.w3.org/2000/svg" viewBox="0 0 99.43 99.43"><defs><style>.cls-1{fill:#6a9bc7;}.cls-1,.cls-5,.cls-6,.cls-7,.cls-8{fill-rule:evenodd;}.cls-2{fill:#f2d29b;}.cls-3,.cls-8{fill:#44703a;}.cls-4{fill:#eb7372;}.cls-5{fill:#f8dfc6;}.cls-6{fill:#fdf6ee;}.cls-7{fill:#97b696;}</style></defs><title>a6</title><path class="cls-1" d="M50.28,99.72A49.72,49.72,0,1,0,.57,50,49.81,49.81,0,0,0,50.28,99.72Z" transform="translate(-0.57 -0.28)"/><rect class="cls-2" x="13.88" y="33.72" width="58.09" height="41.07"/><rect class="cls-3" x="24.07" y="65.96" width="40.88" height="0.55"/><rect class="cls-3" x="23.8" y="40.27" width="0.55" height="25.96"/><rect class="cls-3" x="31.59" y="40.27" width="0.55" height="25.96"/><rect class="cls-3" x="39.39" y="40.27" width="0.55" height="25.96"/><rect class="cls-3" x="47.18" y="40.27" width="0.55" height="25.96"/><rect class="cls-3" x="43" y="53.27" width="25.95" height="0.55" transform="translate(1.2 108.58) rotate(-89.31)"/><rect class="cls-3" x="62.77" y="40.27" width="0.55" height="25.96"/><rect class="cls-3" x="24.07" y="59.86" width="40.88" height="0.55"/><polygon class="cls-3" points="24.07 53.77 64.94 54.07 64.94 54.62 24.07 54.32 24.07 53.77"/><rect class="cls-3" x="24.07" y="47.68" width="40.88" height="0.55"/><rect class="cls-3" x="24.07" y="41.59" width="40.88" height="0.55"/><polygon class="cls-4" points="32.22 47.78 23.48 66.05 24.23 66.41 32.63 48.84 39.31 60.35 39.54 60.76 39.92 60.46 47.46 54.57 55 60.46 55.43 60.8 55.64 60.3 61.71 45.65 63.32 46.32 62.83 41.86 59.33 44.66 60.95 45.33 55.08 59.48 47.71 53.72 47.46 53.52 47.2 53.72 39.78 59.52 32.95 47.75 32.56 47.07 32.22 47.78"/><rect class="cls-4" x="22.89" y="67.05" width="2.37" height="1.21"/><rect class="cls-4" x="30.68" y="67.05" width="2.37" height="1.21"/><rect class="cls-4" x="38.48" y="67.05" width="2.37" height="1.21"/><rect class="cls-4" x="46.27" y="67.05" width="2.37" height="1.21"/><rect class="cls-4" x="54.07" y="67.05" width="2.37" height="1.21"/><rect class="cls-4" x="61.86" y="67.05" width="2.37" height="1.21"/><rect class="cls-4" x="20.89" y="59.54" width="2.37" height="1.21"/><rect class="cls-4" x="20.89" y="53.44" width="2.37" height="1.21"/><rect class="cls-4" x="20.89" y="47.35" width="2.37" height="1.21"/><rect class="cls-4" x="20.89" y="41.97" width="2.37" height="1.21"/><polygon class="cls-5" points="87.43 39.28 72.68 26.94 59 34.08 55.91 43.59 80.61 46.93 87.43 39.28"/><path class="cls-5" d="M57.75,52.1h0a3,3,0,0,1-1.51-3.92l6.76-14a3,3,0,0,1,3.92-1.51h0a3,3,0,0,1,1.51,3.92l-6.76,14A3,3,0,0,1,57.75,52.1Z" transform="translate(-0.57 -0.28)"/><path class="cls-5" d="M64.34,52.46h0a3,3,0,0,1-2.11-3.63l4.45-14.9a3,3,0,0,1,3.63-2.11h0a3,3,0,0,1,2.11,3.63L68,50.35A3,3,0,0,1,64.34,52.46Z" transform="translate(-0.57 -0.28)"/><path class="cls-5" d="M71.33,52.37h0a3,3,0,0,1-3-2.92l.23-15.55a3,3,0,0,1,2.92-3h0a3,3,0,0,1,3,2.92l-.23,15.55A3,3,0,0,1,71.33,52.37Z" transform="translate(-0.57 -0.28)"/><path class="cls-6" d="M83.8,37.39c5.91-1.83,11.57,6,10.93,10.4s-5.91,7-12.12,6.43-9.7-5.72-9.3-8S77.89,39.21,83.8,37.39Z" transform="translate(-0.57 -0.28)"/><path class="cls-6" d="M90.72,41.23h0c-.81,1.42-2.84,2.18-4.05,1.09L71.84,29.09C70.63,28,69.94,26.45,70.75,25h0a3,3,0,0,1,4.05-1.09L89.63,37.18C90.85,38.27,91.53,39.82,90.72,41.23Z" transform="translate(-0.57 -0.28)"/><path class="cls-6" d="M58.53,32.69h0a3,3,0,0,1,1.71-3.83l11.78-5a2.94,2.94,0,0,1,3.83,1.71h0a3,3,0,0,1-1.71,3.83l-11.78,5A2.94,2.94,0,0,1,58.53,32.69Z" transform="translate(-0.57 -0.28)"/><path class="cls-6" d="M51.14,47.76h0a3,3,0,0,1-1.08-4.06l8.23-13.2a3,3,0,0,1,4.06-1.08h0a3,3,0,0,1,1.08,4.06L55.2,46.67A3,3,0,0,1,51.14,47.76Z" transform="translate(-0.57 -0.28)"/><path class="cls-6" d="M69.29,31.68c2.34,1.54,11.59,7.91,5.42,11.38s12.14,3.66,12.14,3.66L85.26,35.23S76.92,22.81,69.29,31.68Z" transform="translate(-0.57 -0.28)"/><polygon class="cls-6" points="85.15 35.17 81.99 49.92 90.71 53.21 95.47 38.84 85.15 35.17"/><path class="cls-7" d="M95.06,37.2,88.84,55.44l9.85,3.36.94-2.75a50,50,0,0,0-1-17.63Z" transform="translate(-0.57 -0.28)"/><path class="cls-7" d="M50.43,47.12l-1.2,5.68,5-2.95L74.78,21a1.28,1.28,0,0,0-.29-1.78L72.76,18A1.28,1.28,0,0,0,71,18.3Z" transform="translate(-0.57 -0.28)"/><path class="cls-8" d="M49.63,50.93l-.4,1.88,1.65-1a4.31,4.31,0,0,0-1.26-.9Z" transform="translate(-0.57 -0.28)"/><path class="cls-6" d="M79.13,46.36h0a3.42,3.42,0,0,1-3.45,3.52l-17.26-1A3.59,3.59,0,0,1,54.9,45.4h0a3.5,3.5,0,0,1,3.45-3.52l17.26,1A3.59,3.59,0,0,1,79.13,46.36Z" transform="translate(-0.57 -0.28)"/></svg>